<svg width="14" height="17" viewBox="0 0 14 17" fill="none" xmlns="http://www.w3.org/2000/svg">
<path d="M5.16138 1.83331H2.49471C1.75833 1.83331 1.16138 2.43027 1.16138 3.16665V5.83331C1.16138 6.56969 1.75833 7.16665 2.49471 7.16665H5.16138C5.89776 7.16665 6.49471 6.56969 6.49471 5.83331V3.16665C6.49471 2.43027 5.89776 1.83331 5.16138 1.83331Z" stroke="#E6704B" stroke-width="2" stroke-linecap="round" stroke-linejoin="round"/>
<path d="M5.16138 9.83331H2.49471C1.75833 9.83331 1.16138 10.4303 1.16138 11.1666V13.8333C1.16138 14.5697 1.75833 15.1666 2.49471 15.1666H5.16138C5.89776 15.1666 6.49471 14.5697 6.49471 13.8333V11.1666C6.49471 10.4303 5.89776 9.83331 5.16138 9.83331Z" stroke="#E6704B" stroke-width="2" stroke-linecap="round" stroke-linejoin="round"/>
<path d="M12.4946 11.1666H8.49463" stroke="#E6704B" stroke-width="2" stroke-linecap="round" stroke-linejoin="round"/>
<path d="M11.1613 13.8333H8.49463" stroke="#E6704B" stroke-width="2" stroke-linecap="round" stroke-linejoin="round"/>
<path d="M11.1613 5.83331H8.49463" stroke="#E6704B" stroke-width="2" stroke-linecap="round" stroke-linejoin="round"/>
<path d="M12.4946 3.16663H8.49463" stroke="#E6704B" stroke-width="2" stroke-linecap="round" stroke-linejoin="round"/>
</svg>
